<mxfile host="app.diagrams.net" modified="2023-09-20T13:11:37.033Z" agent="Mozilla/5.0 (Windows NT 10.0; Win64; x64) AppleWebKit/537.36 (KHTML, like Gecko) Chrome/117.0.0.0 Safari/537.36 Edg/117.0.2045.31" etag="h3o3smCDZV5ydTGvJoLe" version="21.7.5" type="device">
  <diagram name="Page-1" id="e56a1550-8fbb-45ad-956c-1786394a9013">
    <mxGraphModel dx="1386" dy="793" grid="1" gridSize="10" guides="1" tooltips="1" connect="1" arrows="1" fold="1" page="1" pageScale="1" pageWidth="1100" pageHeight="850" background="none" math="0" shadow="0">
      <root>
        <mxCell id="0" />
        <mxCell id="1" parent="0" />
        <mxCell id="Wx2HM0mQwjey_a9Q2P5y-24" value="" style="edgeStyle=orthogonalEdgeStyle;rounded=0;orthogonalLoop=1;jettySize=auto;html=1;" edge="1" parent="1" source="Wx2HM0mQwjey_a9Q2P5y-13" target="Wx2HM0mQwjey_a9Q2P5y-21">
          <mxGeometry relative="1" as="geometry" />
        </mxCell>
        <mxCell id="Wx2HM0mQwjey_a9Q2P5y-13" value="GUI" style="swimlane;childLayout=stackLayout;horizontal=1;startSize=50;horizontalStack=0;rounded=1;fontSize=14;fontStyle=0;strokeWidth=2;resizeParent=0;resizeLast=1;shadow=0;dashed=0;align=center;arcSize=4;whiteSpace=wrap;html=1;" vertex="1" parent="1">
          <mxGeometry x="110" y="30" width="160" height="140" as="geometry" />
        </mxCell>
        <mxCell id="Wx2HM0mQwjey_a9Q2P5y-14" value="- icons: Icons&lt;br&gt;-&amp;nbsp;transitions: Transitions" style="align=left;strokeColor=none;fillColor=none;spacingLeft=4;fontSize=12;verticalAlign=top;resizable=0;rotatable=0;part=1;html=1;" vertex="1" parent="Wx2HM0mQwjey_a9Q2P5y-13">
          <mxGeometry y="50" width="160" height="70" as="geometry" />
        </mxCell>
        <mxCell id="Wx2HM0mQwjey_a9Q2P5y-17" value="throwtoController()" style="rounded=0;whiteSpace=wrap;html=1;" vertex="1" parent="Wx2HM0mQwjey_a9Q2P5y-13">
          <mxGeometry y="120" width="160" height="20" as="geometry" />
        </mxCell>
        <mxCell id="Wx2HM0mQwjey_a9Q2P5y-15" value="UX" style="swimlane;childLayout=stackLayout;horizontal=1;startSize=50;horizontalStack=0;rounded=1;fontSize=14;fontStyle=0;strokeWidth=2;resizeParent=0;resizeLast=1;shadow=0;dashed=0;align=center;arcSize=4;whiteSpace=wrap;html=1;" vertex="1" parent="1">
          <mxGeometry x="410" y="30" width="160" height="140" as="geometry" />
        </mxCell>
        <mxCell id="Wx2HM0mQwjey_a9Q2P5y-16" value="- interface: Interface" style="align=left;strokeColor=none;fillColor=none;spacingLeft=4;fontSize=12;verticalAlign=top;resizable=0;rotatable=0;part=1;html=1;" vertex="1" parent="Wx2HM0mQwjey_a9Q2P5y-15">
          <mxGeometry y="50" width="160" height="70" as="geometry" />
        </mxCell>
        <mxCell id="Wx2HM0mQwjey_a9Q2P5y-19" value="throwtoController()" style="rounded=0;whiteSpace=wrap;html=1;" vertex="1" parent="Wx2HM0mQwjey_a9Q2P5y-15">
          <mxGeometry y="120" width="160" height="20" as="geometry" />
        </mxCell>
        <mxCell id="Wx2HM0mQwjey_a9Q2P5y-21" value="AppController" style="swimlane;childLayout=stackLayout;horizontal=1;startSize=50;horizontalStack=0;rounded=1;fontSize=14;fontStyle=0;strokeWidth=2;resizeParent=0;resizeLast=1;shadow=0;dashed=0;align=center;arcSize=4;whiteSpace=wrap;html=1;" vertex="1" parent="1">
          <mxGeometry x="100" y="280" width="150" height="110" as="geometry" />
        </mxCell>
        <mxCell id="Wx2HM0mQwjey_a9Q2P5y-22" value="+ gui: GUI&lt;br&gt;+ ux: UX" style="align=left;strokeColor=none;fillColor=none;spacingLeft=4;fontSize=12;verticalAlign=top;resizable=0;rotatable=0;part=1;html=1;" vertex="1" parent="Wx2HM0mQwjey_a9Q2P5y-21">
          <mxGeometry y="50" width="150" height="40" as="geometry" />
        </mxCell>
        <mxCell id="Wx2HM0mQwjey_a9Q2P5y-55" value="CreateRequest()" style="rounded=0;whiteSpace=wrap;html=1;" vertex="1" parent="Wx2HM0mQwjey_a9Q2P5y-21">
          <mxGeometry y="90" width="150" height="20" as="geometry" />
        </mxCell>
        <mxCell id="Wx2HM0mQwjey_a9Q2P5y-72" style="edgeStyle=orthogonalEdgeStyle;rounded=0;orthogonalLoop=1;jettySize=auto;html=1;exitX=0.5;exitY=0;exitDx=0;exitDy=0;" edge="1" parent="1" source="Wx2HM0mQwjey_a9Q2P5y-28">
          <mxGeometry relative="1" as="geometry">
            <mxPoint x="100" y="600" as="targetPoint" />
          </mxGeometry>
        </mxCell>
        <mxCell id="Wx2HM0mQwjey_a9Q2P5y-28" value="SalesRepository" style="swimlane;childLayout=stackLayout;horizontal=1;startSize=50;horizontalStack=0;rounded=1;fontSize=14;fontStyle=0;strokeWidth=2;resizeParent=0;resizeLast=1;shadow=0;dashed=0;align=center;arcSize=4;whiteSpace=wrap;html=1;" vertex="1" parent="1">
          <mxGeometry x="20" y="710" width="160" height="150" as="geometry" />
        </mxCell>
        <mxCell id="Wx2HM0mQwjey_a9Q2P5y-29" value="-db : Database" style="align=left;strokeColor=none;fillColor=none;spacingLeft=4;fontSize=12;verticalAlign=top;resizable=0;rotatable=0;part=1;html=1;" vertex="1" parent="Wx2HM0mQwjey_a9Q2P5y-28">
          <mxGeometry y="50" width="160" height="70" as="geometry" />
        </mxCell>
        <mxCell id="Wx2HM0mQwjey_a9Q2P5y-48" value="throwtoController()&lt;br&gt;savefile()" style="rounded=0;whiteSpace=wrap;html=1;" vertex="1" parent="Wx2HM0mQwjey_a9Q2P5y-28">
          <mxGeometry y="120" width="160" height="30" as="geometry" />
        </mxCell>
        <mxCell id="Wx2HM0mQwjey_a9Q2P5y-77" style="edgeStyle=orthogonalEdgeStyle;rounded=0;orthogonalLoop=1;jettySize=auto;html=1;exitX=0.5;exitY=0;exitDx=0;exitDy=0;entryX=1;entryY=1;entryDx=0;entryDy=0;" edge="1" parent="1" source="Wx2HM0mQwjey_a9Q2P5y-30" target="Wx2HM0mQwjey_a9Q2P5y-60">
          <mxGeometry relative="1" as="geometry">
            <mxPoint x="230" y="600" as="targetPoint" />
            <Array as="points">
              <mxPoint x="310" y="670" />
              <mxPoint x="231" y="670" />
            </Array>
          </mxGeometry>
        </mxCell>
        <mxCell id="Wx2HM0mQwjey_a9Q2P5y-30" value="WarehouseRepository" style="swimlane;childLayout=stackLayout;horizontal=1;startSize=50;horizontalStack=0;rounded=1;fontSize=14;fontStyle=0;strokeWidth=2;resizeParent=0;resizeLast=1;shadow=0;dashed=0;align=center;arcSize=4;whiteSpace=wrap;html=1;" vertex="1" parent="1">
          <mxGeometry x="230" y="710" width="160" height="150" as="geometry" />
        </mxCell>
        <mxCell id="Wx2HM0mQwjey_a9Q2P5y-31" value="-db : Database" style="align=left;strokeColor=none;fillColor=none;spacingLeft=4;fontSize=12;verticalAlign=top;resizable=0;rotatable=0;part=1;html=1;" vertex="1" parent="Wx2HM0mQwjey_a9Q2P5y-30">
          <mxGeometry y="50" width="160" height="70" as="geometry" />
        </mxCell>
        <mxCell id="Wx2HM0mQwjey_a9Q2P5y-49" value="throwtoController()&lt;br style=&quot;border-color: var(--border-color);&quot;&gt;savefile()" style="rounded=0;whiteSpace=wrap;html=1;" vertex="1" parent="Wx2HM0mQwjey_a9Q2P5y-30">
          <mxGeometry y="120" width="160" height="30" as="geometry" />
        </mxCell>
        <mxCell id="Wx2HM0mQwjey_a9Q2P5y-51" style="edgeStyle=orthogonalEdgeStyle;rounded=0;orthogonalLoop=1;jettySize=auto;html=1;exitX=0.5;exitY=1;exitDx=0;exitDy=0;" edge="1" parent="Wx2HM0mQwjey_a9Q2P5y-30" source="Wx2HM0mQwjey_a9Q2P5y-31" target="Wx2HM0mQwjey_a9Q2P5y-31">
          <mxGeometry relative="1" as="geometry" />
        </mxCell>
        <mxCell id="Wx2HM0mQwjey_a9Q2P5y-64" style="edgeStyle=orthogonalEdgeStyle;rounded=0;orthogonalLoop=1;jettySize=auto;html=1;exitX=0.5;exitY=0;exitDx=0;exitDy=0;entryX=0;entryY=0.5;entryDx=0;entryDy=0;" edge="1" parent="1" source="Wx2HM0mQwjey_a9Q2P5y-32" target="Wx2HM0mQwjey_a9Q2P5y-61">
          <mxGeometry relative="1" as="geometry" />
        </mxCell>
        <mxCell id="Wx2HM0mQwjey_a9Q2P5y-32" value="FinIndicatorsRepository" style="swimlane;childLayout=stackLayout;horizontal=1;startSize=50;horizontalStack=0;rounded=1;fontSize=14;fontStyle=0;strokeWidth=2;resizeParent=0;resizeLast=1;shadow=0;dashed=0;align=center;arcSize=4;whiteSpace=wrap;html=1;" vertex="1" parent="1">
          <mxGeometry x="420" y="840" width="160" height="130" as="geometry" />
        </mxCell>
        <mxCell id="Wx2HM0mQwjey_a9Q2P5y-33" value="-db : Database" style="align=left;strokeColor=none;fillColor=none;spacingLeft=4;fontSize=12;verticalAlign=top;resizable=0;rotatable=0;part=1;html=1;" vertex="1" parent="Wx2HM0mQwjey_a9Q2P5y-32">
          <mxGeometry y="50" width="160" height="40" as="geometry" />
        </mxCell>
        <mxCell id="Wx2HM0mQwjey_a9Q2P5y-105" value="throwtoIndicator()&lt;br style=&quot;border-color: var(--border-color);&quot;&gt;savefile()" style="rounded=0;whiteSpace=wrap;html=1;" vertex="1" parent="Wx2HM0mQwjey_a9Q2P5y-32">
          <mxGeometry y="90" width="160" height="40" as="geometry" />
        </mxCell>
        <mxCell id="Wx2HM0mQwjey_a9Q2P5y-37" style="edgeStyle=orthogonalEdgeStyle;rounded=0;orthogonalLoop=1;jettySize=auto;html=1;exitX=0.5;exitY=1;exitDx=0;exitDy=0;" edge="1" parent="1" source="Wx2HM0mQwjey_a9Q2P5y-19">
          <mxGeometry relative="1" as="geometry">
            <mxPoint x="250" y="300" as="targetPoint" />
            <Array as="points">
              <mxPoint x="490" y="300" />
              <mxPoint x="250" y="300" />
            </Array>
          </mxGeometry>
        </mxCell>
        <mxCell id="Wx2HM0mQwjey_a9Q2P5y-59" value="" style="edgeStyle=orthogonalEdgeStyle;rounded=0;orthogonalLoop=1;jettySize=auto;html=1;" edge="1" parent="1" source="Wx2HM0mQwjey_a9Q2P5y-52" target="Wx2HM0mQwjey_a9Q2P5y-57">
          <mxGeometry relative="1" as="geometry" />
        </mxCell>
        <mxCell id="Wx2HM0mQwjey_a9Q2P5y-52" value="SQL-Requests" style="swimlane;childLayout=stackLayout;horizontal=1;startSize=50;horizontalStack=0;rounded=1;fontSize=14;fontStyle=0;strokeWidth=2;resizeParent=0;resizeLast=1;shadow=0;dashed=0;align=center;arcSize=4;whiteSpace=wrap;html=1;" vertex="1" parent="1">
          <mxGeometry x="80" y="490" width="150" height="110" as="geometry" />
        </mxCell>
        <mxCell id="Wx2HM0mQwjey_a9Q2P5y-53" value="- controller: Appcontroller" style="align=left;strokeColor=none;fillColor=none;spacingLeft=4;fontSize=12;verticalAlign=top;resizable=0;rotatable=0;part=1;html=1;" vertex="1" parent="Wx2HM0mQwjey_a9Q2P5y-52">
          <mxGeometry y="50" width="150" height="40" as="geometry" />
        </mxCell>
        <mxCell id="Wx2HM0mQwjey_a9Q2P5y-60" value="throwtoDataCollector()" style="rounded=0;whiteSpace=wrap;html=1;" vertex="1" parent="Wx2HM0mQwjey_a9Q2P5y-52">
          <mxGeometry y="90" width="150" height="20" as="geometry" />
        </mxCell>
        <mxCell id="Wx2HM0mQwjey_a9Q2P5y-54" style="edgeStyle=orthogonalEdgeStyle;rounded=0;orthogonalLoop=1;jettySize=auto;html=1;exitX=0.5;exitY=1;exitDx=0;exitDy=0;entryX=0.5;entryY=0;entryDx=0;entryDy=0;" edge="1" parent="1" source="Wx2HM0mQwjey_a9Q2P5y-55" target="Wx2HM0mQwjey_a9Q2P5y-52">
          <mxGeometry relative="1" as="geometry" />
        </mxCell>
        <mxCell id="Wx2HM0mQwjey_a9Q2P5y-86" value="" style="edgeStyle=orthogonalEdgeStyle;rounded=0;orthogonalLoop=1;jettySize=auto;html=1;" edge="1" parent="1" source="Wx2HM0mQwjey_a9Q2P5y-57" target="Wx2HM0mQwjey_a9Q2P5y-84">
          <mxGeometry relative="1" as="geometry" />
        </mxCell>
        <mxCell id="Wx2HM0mQwjey_a9Q2P5y-57" value="DataTableCollector" style="swimlane;childLayout=stackLayout;horizontal=1;startSize=50;horizontalStack=0;rounded=1;fontSize=14;fontStyle=0;strokeWidth=2;resizeParent=0;resizeLast=1;shadow=0;dashed=0;align=center;arcSize=4;whiteSpace=wrap;html=1;" vertex="1" parent="1">
          <mxGeometry x="560" y="480" width="150" height="130" as="geometry" />
        </mxCell>
        <mxCell id="Wx2HM0mQwjey_a9Q2P5y-58" value="- request:&amp;nbsp;SQL-Requests" style="align=left;strokeColor=none;fillColor=none;spacingLeft=4;fontSize=12;verticalAlign=top;resizable=0;rotatable=0;part=1;html=1;" vertex="1" parent="Wx2HM0mQwjey_a9Q2P5y-57">
          <mxGeometry y="50" width="150" height="45" as="geometry" />
        </mxCell>
        <mxCell id="Wx2HM0mQwjey_a9Q2P5y-50" value="throwtoChartmaker()" style="rounded=0;whiteSpace=wrap;html=1;" vertex="1" parent="Wx2HM0mQwjey_a9Q2P5y-57">
          <mxGeometry y="95" width="150" height="35" as="geometry" />
        </mxCell>
        <mxCell id="Wx2HM0mQwjey_a9Q2P5y-61" value="GetFinIndicator" style="swimlane;childLayout=stackLayout;horizontal=1;startSize=50;horizontalStack=0;rounded=1;fontSize=14;fontStyle=0;strokeWidth=2;resizeParent=0;resizeLast=1;shadow=0;dashed=0;align=center;arcSize=4;whiteSpace=wrap;html=1;" vertex="1" parent="1">
          <mxGeometry x="560" y="690" width="270" height="90" as="geometry" />
        </mxCell>
        <mxCell id="Wx2HM0mQwjey_a9Q2P5y-62" value="+&amp;nbsp;report: ShowFinindicator&lt;br&gt;+ dataofreports:&amp;nbsp;&lt;span style=&quot;font-size: 14px; text-align: center;&quot;&gt;FinIndicatorsRepository&lt;/span&gt;&lt;span style=&quot;background-color: initial;&quot;&gt;&lt;br&gt;&lt;/span&gt;" style="align=left;strokeColor=none;fillColor=none;spacingLeft=4;fontSize=12;verticalAlign=top;resizable=0;rotatable=0;part=1;html=1;" vertex="1" parent="Wx2HM0mQwjey_a9Q2P5y-61">
          <mxGeometry y="50" width="270" height="40" as="geometry" />
        </mxCell>
        <mxCell id="Wx2HM0mQwjey_a9Q2P5y-63" style="edgeStyle=orthogonalEdgeStyle;rounded=0;orthogonalLoop=1;jettySize=auto;html=1;exitX=0.5;exitY=1;exitDx=0;exitDy=0;entryX=0.5;entryY=0;entryDx=0;entryDy=0;" edge="1" parent="1" source="Wx2HM0mQwjey_a9Q2P5y-50" target="Wx2HM0mQwjey_a9Q2P5y-61">
          <mxGeometry relative="1" as="geometry" />
        </mxCell>
        <mxCell id="Wx2HM0mQwjey_a9Q2P5y-88" style="edgeStyle=orthogonalEdgeStyle;rounded=0;orthogonalLoop=1;jettySize=auto;html=1;exitX=0.5;exitY=0;exitDx=0;exitDy=0;entryX=1;entryY=0;entryDx=0;entryDy=0;" edge="1" parent="1" source="Wx2HM0mQwjey_a9Q2P5y-78" target="Wx2HM0mQwjey_a9Q2P5y-62">
          <mxGeometry relative="1" as="geometry">
            <mxPoint x="730" y="740" as="targetPoint" />
            <Array as="points">
              <mxPoint x="900" y="740" />
            </Array>
          </mxGeometry>
        </mxCell>
        <mxCell id="Wx2HM0mQwjey_a9Q2P5y-78" value="ShowFinIndicator" style="swimlane;childLayout=stackLayout;horizontal=1;startSize=50;horizontalStack=0;rounded=1;fontSize=14;fontStyle=0;strokeWidth=2;resizeParent=0;resizeLast=1;shadow=0;dashed=0;align=center;arcSize=4;whiteSpace=wrap;html=1;" vertex="1" parent="1">
          <mxGeometry x="820" y="850" width="160" height="130" as="geometry" />
        </mxCell>
        <mxCell id="Wx2HM0mQwjey_a9Q2P5y-110" value="indicator: Indicator" style="text;html=1;align=left;verticalAlign=middle;resizable=0;points=[];autosize=1;strokeColor=none;fillColor=none;" vertex="1" parent="Wx2HM0mQwjey_a9Q2P5y-78">
          <mxGeometry y="50" width="160" height="40" as="geometry" />
        </mxCell>
        <mxCell id="Wx2HM0mQwjey_a9Q2P5y-111" value="show()" style="rounded=0;whiteSpace=wrap;html=1;" vertex="1" parent="Wx2HM0mQwjey_a9Q2P5y-78">
          <mxGeometry y="90" width="160" height="40" as="geometry" />
        </mxCell>
        <mxCell id="Wx2HM0mQwjey_a9Q2P5y-87" style="edgeStyle=orthogonalEdgeStyle;rounded=0;orthogonalLoop=1;jettySize=auto;html=1;exitX=0.5;exitY=0;exitDx=0;exitDy=0;entryX=0.5;entryY=1;entryDx=0;entryDy=0;" edge="1" parent="1" source="Wx2HM0mQwjey_a9Q2P5y-81" target="Wx2HM0mQwjey_a9Q2P5y-84">
          <mxGeometry relative="1" as="geometry" />
        </mxCell>
        <mxCell id="Wx2HM0mQwjey_a9Q2P5y-81" value="Diagram" style="swimlane;childLayout=stackLayout;horizontal=1;startSize=50;horizontalStack=0;rounded=1;fontSize=14;fontStyle=0;strokeWidth=2;resizeParent=0;resizeLast=1;shadow=0;dashed=0;align=center;arcSize=4;whiteSpace=wrap;html=1;" vertex="1" parent="1">
          <mxGeometry x="1080" y="850" width="160" height="150" as="geometry" />
        </mxCell>
        <mxCell id="Wx2HM0mQwjey_a9Q2P5y-82" value="- file: File" style="align=left;strokeColor=none;fillColor=none;spacingLeft=4;fontSize=12;verticalAlign=top;resizable=0;rotatable=0;part=1;html=1;" vertex="1" parent="Wx2HM0mQwjey_a9Q2P5y-81">
          <mxGeometry y="50" width="160" height="70" as="geometry" />
        </mxCell>
        <mxCell id="Wx2HM0mQwjey_a9Q2P5y-83" value="show(file)" style="rounded=0;whiteSpace=wrap;html=1;" vertex="1" parent="Wx2HM0mQwjey_a9Q2P5y-81">
          <mxGeometry y="120" width="160" height="30" as="geometry" />
        </mxCell>
        <mxCell id="Wx2HM0mQwjey_a9Q2P5y-84" value="Chartmaker" style="swimlane;childLayout=stackLayout;horizontal=1;startSize=50;horizontalStack=0;rounded=1;fontSize=14;fontStyle=0;strokeWidth=2;resizeParent=0;resizeLast=1;shadow=0;dashed=0;align=center;arcSize=4;whiteSpace=wrap;html=1;" vertex="1" parent="1">
          <mxGeometry x="945" y="480" width="205" height="130" as="geometry" />
        </mxCell>
        <mxCell id="Wx2HM0mQwjey_a9Q2P5y-85" value="- collector:&amp;nbsp;DataTableCollector&lt;br&gt;- diagramm : Diagramm" style="align=left;strokeColor=none;fillColor=none;spacingLeft=4;fontSize=12;verticalAlign=top;resizable=0;rotatable=0;part=1;html=1;" vertex="1" parent="Wx2HM0mQwjey_a9Q2P5y-84">
          <mxGeometry y="50" width="205" height="45" as="geometry" />
        </mxCell>
        <mxCell id="Wx2HM0mQwjey_a9Q2P5y-109" value="showChart(this.diagramm)" style="rounded=0;whiteSpace=wrap;html=1;" vertex="1" parent="Wx2HM0mQwjey_a9Q2P5y-84">
          <mxGeometry y="95" width="205" height="35" as="geometry" />
        </mxCell>
        <mxCell id="Wx2HM0mQwjey_a9Q2P5y-89" value="1" style="text;html=1;align=center;verticalAlign=middle;resizable=0;points=[];autosize=1;strokeColor=none;fillColor=none;" vertex="1" parent="1">
          <mxGeometry x="70" y="680" width="30" height="30" as="geometry" />
        </mxCell>
        <mxCell id="Wx2HM0mQwjey_a9Q2P5y-93" value="1" style="text;html=1;align=center;verticalAlign=middle;resizable=0;points=[];autosize=1;strokeColor=none;fillColor=none;" vertex="1" parent="1">
          <mxGeometry x="280" y="680" width="30" height="30" as="geometry" />
        </mxCell>
        <mxCell id="Wx2HM0mQwjey_a9Q2P5y-94" value="1" style="text;html=1;align=center;verticalAlign=middle;resizable=0;points=[];autosize=1;strokeColor=none;fillColor=none;" vertex="1" parent="1">
          <mxGeometry x="480" y="810" width="30" height="30" as="geometry" />
        </mxCell>
        <mxCell id="Wx2HM0mQwjey_a9Q2P5y-95" value="1" style="text;html=1;align=center;verticalAlign=middle;resizable=0;points=[];autosize=1;strokeColor=none;fillColor=none;" vertex="1" parent="1">
          <mxGeometry x="250" y="300" width="30" height="30" as="geometry" />
        </mxCell>
        <mxCell id="Wx2HM0mQwjey_a9Q2P5y-96" value="1" style="text;html=1;align=center;verticalAlign=middle;resizable=0;points=[];autosize=1;strokeColor=none;fillColor=none;" vertex="1" parent="1">
          <mxGeometry x="150" y="250" width="30" height="30" as="geometry" />
        </mxCell>
        <mxCell id="Wx2HM0mQwjey_a9Q2P5y-97" value="m" style="text;html=1;align=center;verticalAlign=middle;resizable=0;points=[];autosize=1;strokeColor=none;fillColor=none;" vertex="1" parent="1">
          <mxGeometry x="160" y="170" width="30" height="30" as="geometry" />
        </mxCell>
        <mxCell id="Wx2HM0mQwjey_a9Q2P5y-99" value="m" style="text;html=1;align=center;verticalAlign=middle;resizable=0;points=[];autosize=1;strokeColor=none;fillColor=none;" vertex="1" parent="1">
          <mxGeometry x="460" y="170" width="30" height="30" as="geometry" />
        </mxCell>
        <mxCell id="Wx2HM0mQwjey_a9Q2P5y-100" value="m" style="text;html=1;align=center;verticalAlign=middle;resizable=0;points=[];autosize=1;strokeColor=none;fillColor=none;" vertex="1" parent="1">
          <mxGeometry x="160" y="460" width="30" height="30" as="geometry" />
        </mxCell>
        <mxCell id="Wx2HM0mQwjey_a9Q2P5y-101" value="m" style="text;html=1;align=center;verticalAlign=middle;resizable=0;points=[];autosize=1;strokeColor=none;fillColor=none;" vertex="1" parent="1">
          <mxGeometry x="100" y="600" width="30" height="30" as="geometry" />
        </mxCell>
        <mxCell id="Wx2HM0mQwjey_a9Q2P5y-102" value="m" style="text;html=1;align=center;verticalAlign=middle;resizable=0;points=[];autosize=1;strokeColor=none;fillColor=none;" vertex="1" parent="1">
          <mxGeometry x="200" y="592.5" width="30" height="30" as="geometry" />
        </mxCell>
        <mxCell id="Wx2HM0mQwjey_a9Q2P5y-112" value="m" style="text;html=1;align=center;verticalAlign=middle;resizable=0;points=[];autosize=1;strokeColor=none;fillColor=none;" vertex="1" parent="1">
          <mxGeometry x="870" y="820" width="30" height="30" as="geometry" />
        </mxCell>
        <mxCell id="Wx2HM0mQwjey_a9Q2P5y-113" value="1" style="text;html=1;align=center;verticalAlign=middle;resizable=0;points=[];autosize=1;strokeColor=none;fillColor=none;" vertex="1" parent="1">
          <mxGeometry x="830" y="710" width="30" height="30" as="geometry" />
        </mxCell>
        <mxCell id="Wx2HM0mQwjey_a9Q2P5y-114" value="1" style="text;html=1;align=center;verticalAlign=middle;resizable=0;points=[];autosize=1;strokeColor=none;fillColor=none;" vertex="1" parent="1">
          <mxGeometry x="530" y="710" width="30" height="30" as="geometry" />
        </mxCell>
        <mxCell id="Wx2HM0mQwjey_a9Q2P5y-115" value="1" style="text;html=1;align=center;verticalAlign=middle;resizable=0;points=[];autosize=1;strokeColor=none;fillColor=none;" vertex="1" parent="1">
          <mxGeometry x="530" y="520" width="30" height="30" as="geometry" />
        </mxCell>
        <mxCell id="Wx2HM0mQwjey_a9Q2P5y-117" value="m" style="text;html=1;align=center;verticalAlign=middle;resizable=0;points=[];autosize=1;strokeColor=none;fillColor=none;" vertex="1" parent="1">
          <mxGeometry x="230" y="520" width="30" height="30" as="geometry" />
        </mxCell>
        <mxCell id="Wx2HM0mQwjey_a9Q2P5y-118" value="1" style="text;html=1;align=center;verticalAlign=middle;resizable=0;points=[];autosize=1;strokeColor=none;fillColor=none;" vertex="1" parent="1">
          <mxGeometry x="915" y="520" width="30" height="30" as="geometry" />
        </mxCell>
        <mxCell id="Wx2HM0mQwjey_a9Q2P5y-119" value="m" style="text;html=1;align=center;verticalAlign=middle;resizable=0;points=[];autosize=1;strokeColor=none;fillColor=none;" vertex="1" parent="1">
          <mxGeometry x="1130" y="820" width="30" height="30" as="geometry" />
        </mxCell>
        <mxCell id="Wx2HM0mQwjey_a9Q2P5y-120" value="1" style="text;html=1;align=center;verticalAlign=middle;resizable=0;points=[];autosize=1;strokeColor=none;fillColor=none;" vertex="1" parent="1">
          <mxGeometry x="1020" y="610" width="30" height="30" as="geometry" />
        </mxCell>
      </root>
    </mxGraphModel>
  </diagram>
</mxfile>
